<svg xmlns="http://www.w3.org/2000/svg" width="1200" height="480" viewBox="0 0 1200 480">
  <defs>
    <marker id="arrowhead" markerWidth="9" markerHeight="9" refX="7.5" refY="2.5" orient="auto">
      <path d="M0,0 L0,5 L8,2.5 z" fill="#38bdf8"/>
    </marker>
    <linearGradient id="bgGrad" x1="0" y1="0" x2="0.3" y2="1">
      <stop offset="0%" stop-color="#0b1220"/>
      <stop offset="100%" stop-color="#111d33"/>
    </linearGradient>
  </defs>
  <rect width="1200" height="480" fill="url(#bgGrad)"/>
  <g opacity="0.5"><circle cx="40" cy="40" r="1" fill="#1a2740"/><circle cx="40" cy="78" r="1" fill="#1a2740"/><circle cx="40" cy="116" r="1" fill="#1a2740"/><circle cx="40" cy="154" r="1" fill="#1a2740"/><circle cx="40" cy="192" r="1" fill="#1a2740"/><circle cx="40" cy="230" r="1" fill="#1a2740"/><circle cx="40" cy="268" r="1" fill="#1a2740"/><circle cx="40" cy="306" r="1" fill="#1a2740"/><circle cx="40" cy="344" r="1" fill="#1a2740"/><circle cx="40" cy="382" r="1" fill="#1a2740"/><circle cx="40" cy="420" r="1" fill="#1a2740"/><circle cx="40" cy="458" r="1" fill="#1a2740"/><circle cx="40" cy="496" r="1" fill="#1a2740"/><circle cx="40" cy="534" r="1" fill="#1a2740"/><circle cx="78" cy="40" r="1" fill="#1a2740"/><circle cx="78" cy="78" r="1" fill="#1a2740"/><circle cx="78" cy="116" r="1" fill="#1a2740"/><circle cx="78" cy="154" r="1" fill="#1a2740"/><circle cx="78" cy="192" r="1" fill="#1a2740"/><circle cx="78" cy="230" r="1" fill="#1a2740"/><circle cx="78" cy="268" r="1" fill="#1a2740"/><circle cx="78" cy="306" r="1" fill="#1a2740"/><circle cx="78" cy="344" r="1" fill="#1a2740"/><circle cx="78" cy="382" r="1" fill="#1a2740"/><circle cx="78" cy="420" r="1" fill="#1a2740"/><circle cx="78" cy="458" r="1" fill="#1a2740"/><circle cx="78" cy="496" r="1" fill="#1a2740"/><circle cx="78" cy="534" r="1" fill="#1a2740"/><circle cx="116" cy="40" r="1" fill="#1a2740"/><circle cx="116" cy="78" r="1" fill="#1a2740"/><circle cx="116" cy="116" r="1" fill="#1a2740"/><circle cx="116" cy="154" r="1" fill="#1a2740"/><circle cx="116" cy="192" r="1" fill="#1a2740"/><circle cx="116" cy="230" r="1" fill="#1a2740"/><circle cx="116" cy="268" r="1" fill="#1a2740"/><circle cx="116" cy="306" r="1" fill="#1a2740"/><circle cx="116" cy="344" r="1" fill="#1a2740"/><circle cx="116" cy="382" r="1" fill="#1a2740"/><circle cx="116" cy="420" r="1" fill="#1a2740"/><circle cx="116" cy="458" r="1" fill="#1a2740"/><circle cx="116" cy="496" r="1" fill="#1a2740"/><circle cx="116" cy="534" r="1" fill="#1a2740"/><circle cx="154" cy="40" r="1" fill="#1a2740"/><circle cx="154" cy="78" r="1" fill="#1a2740"/><circle cx="154" cy="116" r="1" fill="#1a2740"/><circle cx="154" cy="154" r="1" fill="#1a2740"/><circle cx="154" cy="192" r="1" fill="#1a2740"/><circle cx="154" cy="230" r="1" fill="#1a2740"/><circle cx="154" cy="268" r="1" fill="#1a2740"/><circle cx="154" cy="306" r="1" fill="#1a2740"/><circle cx="154" cy="344" r="1" fill="#1a2740"/><circle cx="154" cy="382" r="1" fill="#1a2740"/><circle cx="154" cy="420" r="1" fill="#1a2740"/><circle cx="154" cy="458" r="1" fill="#1a2740"/><circle cx="154" cy="496" r="1" fill="#1a2740"/><circle cx="154" cy="534" r="1" fill="#1a2740"/><circle cx="192" cy="40" r="1" fill="#1a2740"/><circle cx="192" cy="78" r="1" fill="#1a2740"/><circle cx="192" cy="116" r="1" fill="#1a2740"/><circle cx="192" cy="154" r="1" fill="#1a2740"/><circle cx="192" cy="192" r="1" fill="#1a2740"/><circle cx="192" cy="230" r="1" fill="#1a2740"/><circle cx="192" cy="268" r="1" fill="#1a2740"/><circle cx="192" cy="306" r="1" fill="#1a2740"/><circle cx="192" cy="344" r="1" fill="#1a2740"/><circle cx="192" cy="382" r="1" fill="#1a2740"/><circle cx="192" cy="420" r="1" fill="#1a2740"/><circle cx="192" cy="458" r="1" fill="#1a2740"/><circle cx="192" cy="496" r="1" fill="#1a2740"/><circle cx="192" cy="534" r="1" fill="#1a2740"/><circle cx="230" cy="40" r="1" fill="#1a2740"/><circle cx="230" cy="78" r="1" fill="#1a2740"/><circle cx="230" cy="116" r="1" fill="#1a2740"/><circle cx="230" cy="154" r="1" fill="#1a2740"/><circle cx="230" cy="192" r="1" fill="#1a2740"/><circle cx="230" cy="230" r="1" fill="#1a2740"/><circle cx="230" cy="268" r="1" fill="#1a2740"/><circle cx="230" cy="306" r="1" fill="#1a2740"/><circle cx="230" cy="344" r="1" fill="#1a2740"/><circle cx="230" cy="382" r="1" fill="#1a2740"/><circle cx="230" cy="420" r="1" fill="#1a2740"/><circle cx="230" cy="458" r="1" fill="#1a2740"/><circle cx="230" cy="496" r="1" fill="#1a2740"/><circle cx="230" cy="534" r="1" fill="#1a2740"/><circle cx="268" cy="40" r="1" fill="#1a2740"/><circle cx="268" cy="78" r="1" fill="#1a2740"/><circle cx="268" cy="116" r="1" fill="#1a2740"/><circle cx="268" cy="154" r="1" fill="#1a2740"/><circle cx="268" cy="192" r="1" fill="#1a2740"/><circle cx="268" cy="230" r="1" fill="#1a2740"/><circle cx="268" cy="268" r="1" fill="#1a2740"/><circle cx="268" cy="306" r="1" fill="#1a2740"/><circle cx="268" cy="344" r="1" fill="#1a2740"/><circle cx="268" cy="382" r="1" fill="#1a2740"/><circle cx="268" cy="420" r="1" fill="#1a2740"/><circle cx="268" cy="458" r="1" fill="#1a2740"/><circle cx="268" cy="496" r="1" fill="#1a2740"/><circle cx="268" cy="534" r="1" fill="#1a2740"/><circle cx="306" cy="40" r="1" fill="#1a2740"/><circle cx="306" cy="78" r="1" fill="#1a2740"/><circle cx="306" cy="116" r="1" fill="#1a2740"/><circle cx="306" cy="154" r="1" fill="#1a2740"/><circle cx="306" cy="192" r="1" fill="#1a2740"/><circle cx="306" cy="230" r="1" fill="#1a2740"/><circle cx="306" cy="268" r="1" fill="#1a2740"/><circle cx="306" cy="306" r="1" fill="#1a2740"/><circle cx="306" cy="344" r="1" fill="#1a2740"/><circle cx="306" cy="382" r="1" fill="#1a2740"/><circle cx="306" cy="420" r="1" fill="#1a2740"/><circle cx="306" cy="458" r="1" fill="#1a2740"/><circle cx="306" cy="496" r="1" fill="#1a2740"/><circle cx="306" cy="534" r="1" fill="#1a2740"/><circle cx="344" cy="40" r="1" fill="#1a2740"/><circle cx="344" cy="78" r="1" fill="#1a2740"/><circle cx="344" cy="116" r="1" fill="#1a2740"/><circle cx="344" cy="154" r="1" fill="#1a2740"/><circle cx="344" cy="192" r="1" fill="#1a2740"/><circle cx="344" cy="230" r="1" fill="#1a2740"/><circle cx="344" cy="268" r="1" fill="#1a2740"/><circle cx="344" cy="306" r="1" fill="#1a2740"/><circle cx="344" cy="344" r="1" fill="#1a2740"/><circle cx="344" cy="382" r="1" fill="#1a2740"/><circle cx="344" cy="420" r="1" fill="#1a2740"/><circle cx="344" cy="458" r="1" fill="#1a2740"/><circle cx="344" cy="496" r="1" fill="#1a2740"/><circle cx="344" cy="534" r="1" fill="#1a2740"/><circle cx="382" cy="40" r="1" fill="#1a2740"/><circle cx="382" cy="78" r="1" fill="#1a2740"/><circle cx="382" cy="116" r="1" fill="#1a2740"/><circle cx="382" cy="154" r="1" fill="#1a2740"/><circle cx="382" cy="192" r="1" fill="#1a2740"/><circle cx="382" cy="230" r="1" fill="#1a2740"/><circle cx="382" cy="268" r="1" fill="#1a2740"/><circle cx="382" cy="306" r="1" fill="#1a2740"/><circle cx="382" cy="344" r="1" fill="#1a2740"/><circle cx="382" cy="382" r="1" fill="#1a2740"/><circle cx="382" cy="420" r="1" fill="#1a2740"/><circle cx="382" cy="458" r="1" fill="#1a2740"/><circle cx="382" cy="496" r="1" fill="#1a2740"/><circle cx="382" cy="534" r="1" fill="#1a2740"/><circle cx="420" cy="40" r="1" fill="#1a2740"/><circle cx="420" cy="78" r="1" fill="#1a2740"/><circle cx="420" cy="116" r="1" fill="#1a2740"/><circle cx="420" cy="154" r="1" fill="#1a2740"/><circle cx="420" cy="192" r="1" fill="#1a2740"/><circle cx="420" cy="230" r="1" fill="#1a2740"/><circle cx="420" cy="268" r="1" fill="#1a2740"/><circle cx="420" cy="306" r="1" fill="#1a2740"/><circle cx="420" cy="344" r="1" fill="#1a2740"/><circle cx="420" cy="382" r="1" fill="#1a2740"/><circle cx="420" cy="420" r="1" fill="#1a2740"/><circle cx="420" cy="458" r="1" fill="#1a2740"/><circle cx="420" cy="496" r="1" fill="#1a2740"/><circle cx="420" cy="534" r="1" fill="#1a2740"/><circle cx="458" cy="40" r="1" fill="#1a2740"/><circle cx="458" cy="78" r="1" fill="#1a2740"/><circle cx="458" cy="116" r="1" fill="#1a2740"/><circle cx="458" cy="154" r="1" fill="#1a2740"/><circle cx="458" cy="192" r="1" fill="#1a2740"/><circle cx="458" cy="230" r="1" fill="#1a2740"/><circle cx="458" cy="268" r="1" fill="#1a2740"/><circle cx="458" cy="306" r="1" fill="#1a2740"/><circle cx="458" cy="344" r="1" fill="#1a2740"/><circle cx="458" cy="382" r="1" fill="#1a2740"/><circle cx="458" cy="420" r="1" fill="#1a2740"/><circle cx="458" cy="458" r="1" fill="#1a2740"/><circle cx="458" cy="496" r="1" fill="#1a2740"/><circle cx="458" cy="534" r="1" fill="#1a2740"/><circle cx="496" cy="40" r="1" fill="#1a2740"/><circle cx="496" cy="78" r="1" fill="#1a2740"/><circle cx="496" cy="116" r="1" fill="#1a2740"/><circle cx="496" cy="154" r="1" fill="#1a2740"/><circle cx="496" cy="192" r="1" fill="#1a2740"/><circle cx="496" cy="230" r="1" fill="#1a2740"/><circle cx="496" cy="268" r="1" fill="#1a2740"/><circle cx="496" cy="306" r="1" fill="#1a2740"/><circle cx="496" cy="344" r="1" fill="#1a2740"/><circle cx="496" cy="382" r="1" fill="#1a2740"/><circle cx="496" cy="420" r="1" fill="#1a2740"/><circle cx="496" cy="458" r="1" fill="#1a2740"/><circle cx="496" cy="496" r="1" fill="#1a2740"/><circle cx="496" cy="534" r="1" fill="#1a2740"/><circle cx="534" cy="40" r="1" fill="#1a2740"/><circle cx="534" cy="78" r="1" fill="#1a2740"/><circle cx="534" cy="116" r="1" fill="#1a2740"/><circle cx="534" cy="154" r="1" fill="#1a2740"/><circle cx="534" cy="192" r="1" fill="#1a2740"/><circle cx="534" cy="230" r="1" fill="#1a2740"/><circle cx="534" cy="268" r="1" fill="#1a2740"/><circle cx="534" cy="306" r="1" fill="#1a2740"/><circle cx="534" cy="344" r="1" fill="#1a2740"/><circle cx="534" cy="382" r="1" fill="#1a2740"/><circle cx="534" cy="420" r="1" fill="#1a2740"/><circle cx="534" cy="458" r="1" fill="#1a2740"/><circle cx="534" cy="496" r="1" fill="#1a2740"/><circle cx="534" cy="534" r="1" fill="#1a2740"/><circle cx="572" cy="40" r="1" fill="#1a2740"/><circle cx="572" cy="78" r="1" fill="#1a2740"/><circle cx="572" cy="116" r="1" fill="#1a2740"/><circle cx="572" cy="154" r="1" fill="#1a2740"/><circle cx="572" cy="192" r="1" fill="#1a2740"/><circle cx="572" cy="230" r="1" fill="#1a2740"/><circle cx="572" cy="268" r="1" fill="#1a2740"/><circle cx="572" cy="306" r="1" fill="#1a2740"/><circle cx="572" cy="344" r="1" fill="#1a2740"/><circle cx="572" cy="382" r="1" fill="#1a2740"/><circle cx="572" cy="420" r="1" fill="#1a2740"/><circle cx="572" cy="458" r="1" fill="#1a2740"/><circle cx="572" cy="496" r="1" fill="#1a2740"/><circle cx="572" cy="534" r="1" fill="#1a2740"/><circle cx="610" cy="40" r="1" fill="#1a2740"/><circle cx="610" cy="78" r="1" fill="#1a2740"/><circle cx="610" cy="116" r="1" fill="#1a2740"/><circle cx="610" cy="154" r="1" fill="#1a2740"/><circle cx="610" cy="192" r="1" fill="#1a2740"/><circle cx="610" cy="230" r="1" fill="#1a2740"/><circle cx="610" cy="268" r="1" fill="#1a2740"/><circle cx="610" cy="306" r="1" fill="#1a2740"/><circle cx="610" cy="344" r="1" fill="#1a2740"/><circle cx="610" cy="382" r="1" fill="#1a2740"/><circle cx="610" cy="420" r="1" fill="#1a2740"/><circle cx="610" cy="458" r="1" fill="#1a2740"/><circle cx="610" cy="496" r="1" fill="#1a2740"/><circle cx="610" cy="534" r="1" fill="#1a2740"/><circle cx="648" cy="40" r="1" fill="#1a2740"/><circle cx="648" cy="78" r="1" fill="#1a2740"/><circle cx="648" cy="116" r="1" fill="#1a2740"/><circle cx="648" cy="154" r="1" fill="#1a2740"/><circle cx="648" cy="192" r="1" fill="#1a2740"/><circle cx="648" cy="230" r="1" fill="#1a2740"/><circle cx="648" cy="268" r="1" fill="#1a2740"/><circle cx="648" cy="306" r="1" fill="#1a2740"/><circle cx="648" cy="344" r="1" fill="#1a2740"/><circle cx="648" cy="382" r="1" fill="#1a2740"/><circle cx="648" cy="420" r="1" fill="#1a2740"/><circle cx="648" cy="458" r="1" fill="#1a2740"/><circle cx="648" cy="496" r="1" fill="#1a2740"/><circle cx="648" cy="534" r="1" fill="#1a2740"/><circle cx="686" cy="40" r="1" fill="#1a2740"/><circle cx="686" cy="78" r="1" fill="#1a2740"/><circle cx="686" cy="116" r="1" fill="#1a2740"/><circle cx="686" cy="154" r="1" fill="#1a2740"/><circle cx="686" cy="192" r="1" fill="#1a2740"/><circle cx="686" cy="230" r="1" fill="#1a2740"/><circle cx="686" cy="268" r="1" fill="#1a2740"/><circle cx="686" cy="306" r="1" fill="#1a2740"/><circle cx="686" cy="344" r="1" fill="#1a2740"/><circle cx="686" cy="382" r="1" fill="#1a2740"/><circle cx="686" cy="420" r="1" fill="#1a2740"/><circle cx="686" cy="458" r="1" fill="#1a2740"/><circle cx="686" cy="496" r="1" fill="#1a2740"/><circle cx="686" cy="534" r="1" fill="#1a2740"/><circle cx="724" cy="40" r="1" fill="#1a2740"/><circle cx="724" cy="78" r="1" fill="#1a2740"/><circle cx="724" cy="116" r="1" fill="#1a2740"/><circle cx="724" cy="154" r="1" fill="#1a2740"/><circle cx="724" cy="192" r="1" fill="#1a2740"/><circle cx="724" cy="230" r="1" fill="#1a2740"/><circle cx="724" cy="268" r="1" fill="#1a2740"/><circle cx="724" cy="306" r="1" fill="#1a2740"/><circle cx="724" cy="344" r="1" fill="#1a2740"/><circle cx="724" cy="382" r="1" fill="#1a2740"/><circle cx="724" cy="420" r="1" fill="#1a2740"/><circle cx="724" cy="458" r="1" fill="#1a2740"/><circle cx="724" cy="496" r="1" fill="#1a2740"/><circle cx="724" cy="534" r="1" fill="#1a2740"/><circle cx="762" cy="40" r="1" fill="#1a2740"/><circle cx="762" cy="78" r="1" fill="#1a2740"/><circle cx="762" cy="116" r="1" fill="#1a2740"/><circle cx="762" cy="154" r="1" fill="#1a2740"/><circle cx="762" cy="192" r="1" fill="#1a2740"/><circle cx="762" cy="230" r="1" fill="#1a2740"/><circle cx="762" cy="268" r="1" fill="#1a2740"/><circle cx="762" cy="306" r="1" fill="#1a2740"/><circle cx="762" cy="344" r="1" fill="#1a2740"/><circle cx="762" cy="382" r="1" fill="#1a2740"/><circle cx="762" cy="420" r="1" fill="#1a2740"/><circle cx="762" cy="458" r="1" fill="#1a2740"/><circle cx="762" cy="496" r="1" fill="#1a2740"/><circle cx="762" cy="534" r="1" fill="#1a2740"/><circle cx="800" cy="40" r="1" fill="#1a2740"/><circle cx="800" cy="78" r="1" fill="#1a2740"/><circle cx="800" cy="116" r="1" fill="#1a2740"/><circle cx="800" cy="154" r="1" fill="#1a2740"/><circle cx="800" cy="192" r="1" fill="#1a2740"/><circle cx="800" cy="230" r="1" fill="#1a2740"/><circle cx="800" cy="268" r="1" fill="#1a2740"/><circle cx="800" cy="306" r="1" fill="#1a2740"/><circle cx="800" cy="344" r="1" fill="#1a2740"/><circle cx="800" cy="382" r="1" fill="#1a2740"/><circle cx="800" cy="420" r="1" fill="#1a2740"/><circle cx="800" cy="458" r="1" fill="#1a2740"/><circle cx="800" cy="496" r="1" fill="#1a2740"/><circle cx="800" cy="534" r="1" fill="#1a2740"/><circle cx="838" cy="40" r="1" fill="#1a2740"/><circle cx="838" cy="78" r="1" fill="#1a2740"/><circle cx="838" cy="116" r="1" fill="#1a2740"/><circle cx="838" cy="154" r="1" fill="#1a2740"/><circle cx="838" cy="192" r="1" fill="#1a2740"/><circle cx="838" cy="230" r="1" fill="#1a2740"/><circle cx="838" cy="268" r="1" fill="#1a2740"/><circle cx="838" cy="306" r="1" fill="#1a2740"/><circle cx="838" cy="344" r="1" fill="#1a2740"/><circle cx="838" cy="382" r="1" fill="#1a2740"/><circle cx="838" cy="420" r="1" fill="#1a2740"/><circle cx="838" cy="458" r="1" fill="#1a2740"/><circle cx="838" cy="496" r="1" fill="#1a2740"/><circle cx="838" cy="534" r="1" fill="#1a2740"/><circle cx="876" cy="40" r="1" fill="#1a2740"/><circle cx="876" cy="78" r="1" fill="#1a2740"/><circle cx="876" cy="116" r="1" fill="#1a2740"/><circle cx="876" cy="154" r="1" fill="#1a2740"/><circle cx="876" cy="192" r="1" fill="#1a2740"/><circle cx="876" cy="230" r="1" fill="#1a2740"/><circle cx="876" cy="268" r="1" fill="#1a2740"/><circle cx="876" cy="306" r="1" fill="#1a2740"/><circle cx="876" cy="344" r="1" fill="#1a2740"/><circle cx="876" cy="382" r="1" fill="#1a2740"/><circle cx="876" cy="420" r="1" fill="#1a2740"/><circle cx="876" cy="458" r="1" fill="#1a2740"/><circle cx="876" cy="496" r="1" fill="#1a2740"/><circle cx="876" cy="534" r="1" fill="#1a2740"/><circle cx="914" cy="40" r="1" fill="#1a2740"/><circle cx="914" cy="78" r="1" fill="#1a2740"/><circle cx="914" cy="116" r="1" fill="#1a2740"/><circle cx="914" cy="154" r="1" fill="#1a2740"/><circle cx="914" cy="192" r="1" fill="#1a2740"/><circle cx="914" cy="230" r="1" fill="#1a2740"/><circle cx="914" cy="268" r="1" fill="#1a2740"/><circle cx="914" cy="306" r="1" fill="#1a2740"/><circle cx="914" cy="344" r="1" fill="#1a2740"/><circle cx="914" cy="382" r="1" fill="#1a2740"/><circle cx="914" cy="420" r="1" fill="#1a2740"/><circle cx="914" cy="458" r="1" fill="#1a2740"/><circle cx="914" cy="496" r="1" fill="#1a2740"/><circle cx="914" cy="534" r="1" fill="#1a2740"/><circle cx="952" cy="40" r="1" fill="#1a2740"/><circle cx="952" cy="78" r="1" fill="#1a2740"/><circle cx="952" cy="116" r="1" fill="#1a2740"/><circle cx="952" cy="154" r="1" fill="#1a2740"/><circle cx="952" cy="192" r="1" fill="#1a2740"/><circle cx="952" cy="230" r="1" fill="#1a2740"/><circle cx="952" cy="268" r="1" fill="#1a2740"/><circle cx="952" cy="306" r="1" fill="#1a2740"/><circle cx="952" cy="344" r="1" fill="#1a2740"/><circle cx="952" cy="382" r="1" fill="#1a2740"/><circle cx="952" cy="420" r="1" fill="#1a2740"/><circle cx="952" cy="458" r="1" fill="#1a2740"/><circle cx="952" cy="496" r="1" fill="#1a2740"/><circle cx="952" cy="534" r="1" fill="#1a2740"/><circle cx="990" cy="40" r="1" fill="#1a2740"/><circle cx="990" cy="78" r="1" fill="#1a2740"/><circle cx="990" cy="116" r="1" fill="#1a2740"/><circle cx="990" cy="154" r="1" fill="#1a2740"/><circle cx="990" cy="192" r="1" fill="#1a2740"/><circle cx="990" cy="230" r="1" fill="#1a2740"/><circle cx="990" cy="268" r="1" fill="#1a2740"/><circle cx="990" cy="306" r="1" fill="#1a2740"/><circle cx="990" cy="344" r="1" fill="#1a2740"/><circle cx="990" cy="382" r="1" fill="#1a2740"/><circle cx="990" cy="420" r="1" fill="#1a2740"/><circle cx="990" cy="458" r="1" fill="#1a2740"/><circle cx="990" cy="496" r="1" fill="#1a2740"/><circle cx="990" cy="534" r="1" fill="#1a2740"/><circle cx="1028" cy="40" r="1" fill="#1a2740"/><circle cx="1028" cy="78" r="1" fill="#1a2740"/><circle cx="1028" cy="116" r="1" fill="#1a2740"/><circle cx="1028" cy="154" r="1" fill="#1a2740"/><circle cx="1028" cy="192" r="1" fill="#1a2740"/><circle cx="1028" cy="230" r="1" fill="#1a2740"/><circle cx="1028" cy="268" r="1" fill="#1a2740"/><circle cx="1028" cy="306" r="1" fill="#1a2740"/><circle cx="1028" cy="344" r="1" fill="#1a2740"/><circle cx="1028" cy="382" r="1" fill="#1a2740"/><circle cx="1028" cy="420" r="1" fill="#1a2740"/><circle cx="1028" cy="458" r="1" fill="#1a2740"/><circle cx="1028" cy="496" r="1" fill="#1a2740"/><circle cx="1028" cy="534" r="1" fill="#1a2740"/><circle cx="1066" cy="40" r="1" fill="#1a2740"/><circle cx="1066" cy="78" r="1" fill="#1a2740"/><circle cx="1066" cy="116" r="1" fill="#1a2740"/><circle cx="1066" cy="154" r="1" fill="#1a2740"/><circle cx="1066" cy="192" r="1" fill="#1a2740"/><circle cx="1066" cy="230" r="1" fill="#1a2740"/><circle cx="1066" cy="268" r="1" fill="#1a2740"/><circle cx="1066" cy="306" r="1" fill="#1a2740"/><circle cx="1066" cy="344" r="1" fill="#1a2740"/><circle cx="1066" cy="382" r="1" fill="#1a2740"/><circle cx="1066" cy="420" r="1" fill="#1a2740"/><circle cx="1066" cy="458" r="1" fill="#1a2740"/><circle cx="1066" cy="496" r="1" fill="#1a2740"/><circle cx="1066" cy="534" r="1" fill="#1a2740"/><circle cx="1104" cy="40" r="1" fill="#1a2740"/><circle cx="1104" cy="78" r="1" fill="#1a2740"/><circle cx="1104" cy="116" r="1" fill="#1a2740"/><circle cx="1104" cy="154" r="1" fill="#1a2740"/><circle cx="1104" cy="192" r="1" fill="#1a2740"/><circle cx="1104" cy="230" r="1" fill="#1a2740"/><circle cx="1104" cy="268" r="1" fill="#1a2740"/><circle cx="1104" cy="306" r="1" fill="#1a2740"/><circle cx="1104" cy="344" r="1" fill="#1a2740"/><circle cx="1104" cy="382" r="1" fill="#1a2740"/><circle cx="1104" cy="420" r="1" fill="#1a2740"/><circle cx="1104" cy="458" r="1" fill="#1a2740"/><circle cx="1104" cy="496" r="1" fill="#1a2740"/><circle cx="1104" cy="534" r="1" fill="#1a2740"/><circle cx="1142" cy="40" r="1" fill="#1a2740"/><circle cx="1142" cy="78" r="1" fill="#1a2740"/><circle cx="1142" cy="116" r="1" fill="#1a2740"/><circle cx="1142" cy="154" r="1" fill="#1a2740"/><circle cx="1142" cy="192" r="1" fill="#1a2740"/><circle cx="1142" cy="230" r="1" fill="#1a2740"/><circle cx="1142" cy="268" r="1" fill="#1a2740"/><circle cx="1142" cy="306" r="1" fill="#1a2740"/><circle cx="1142" cy="344" r="1" fill="#1a2740"/><circle cx="1142" cy="382" r="1" fill="#1a2740"/><circle cx="1142" cy="420" r="1" fill="#1a2740"/><circle cx="1142" cy="458" r="1" fill="#1a2740"/><circle cx="1142" cy="496" r="1" fill="#1a2740"/><circle cx="1142" cy="534" r="1" fill="#1a2740"/><circle cx="1180" cy="40" r="1" fill="#1a2740"/><circle cx="1180" cy="78" r="1" fill="#1a2740"/><circle cx="1180" cy="116" r="1" fill="#1a2740"/><circle cx="1180" cy="154" r="1" fill="#1a2740"/><circle cx="1180" cy="192" r="1" fill="#1a2740"/><circle cx="1180" cy="230" r="1" fill="#1a2740"/><circle cx="1180" cy="268" r="1" fill="#1a2740"/><circle cx="1180" cy="306" r="1" fill="#1a2740"/><circle cx="1180" cy="344" r="1" fill="#1a2740"/><circle cx="1180" cy="382" r="1" fill="#1a2740"/><circle cx="1180" cy="420" r="1" fill="#1a2740"/><circle cx="1180" cy="458" r="1" fill="#1a2740"/><circle cx="1180" cy="496" r="1" fill="#1a2740"/><circle cx="1180" cy="534" r="1" fill="#1a2740"/><circle cx="1218" cy="40" r="1" fill="#1a2740"/><circle cx="1218" cy="78" r="1" fill="#1a2740"/><circle cx="1218" cy="116" r="1" fill="#1a2740"/><circle cx="1218" cy="154" r="1" fill="#1a2740"/><circle cx="1218" cy="192" r="1" fill="#1a2740"/><circle cx="1218" cy="230" r="1" fill="#1a2740"/><circle cx="1218" cy="268" r="1" fill="#1a2740"/><circle cx="1218" cy="306" r="1" fill="#1a2740"/><circle cx="1218" cy="344" r="1" fill="#1a2740"/><circle cx="1218" cy="382" r="1" fill="#1a2740"/><circle cx="1218" cy="420" r="1" fill="#1a2740"/><circle cx="1218" cy="458" r="1" fill="#1a2740"/><circle cx="1218" cy="496" r="1" fill="#1a2740"/><circle cx="1218" cy="534" r="1" fill="#1a2740"/></g>
  <rect x="0" y="0" width="6" height="480" fill="#38bdf8"/>
  <text x="56" y="58" fill="#f1f5f9" font-family="Verdana, Arial, sans-serif" font-size="27" font-weight="bold">GitHub Actions CI/CD Pipeline</text>
  <text x="56" y="82" fill="#94a3b8" font-family="Verdana, Arial, sans-serif" font-size="13.5">Reusable template — lint, test, scan, build, deploy</text>
  <line x1="56" y1="98" x2="1144" y2="98" stroke="#22314d" stroke-width="1"/>
  <g><rect x="56" y="130" width="170" height="100" rx="14" fill="#132038" stroke="#fbbf24" stroke-width="1.6"/><rect x="56" y="130" width="170" height="4" rx="2" fill="#fbbf24"/><circle cx="141.0" cy="160" r="17" fill="#0d1626" stroke="#fbbf24" stroke-width="1.4"/><g transform="translate(131.5,150.5) scale(0.7916666666666666)" fill="none" stroke="#fbbf24" stroke-width="1.8" stroke-linecap="round" stroke-linejoin="round"><circle cx="12" cy="8" r="4"/><path d="M4 21c0-4.4 3.6-7 8-7s8 2.6 8 7"/></g><text x="141.0" y="190" fill="#f1f5f9" font-family="Verdana, Arial, sans-serif" font-size="15.5" font-weight="bold" text-anchor="middle">Developer</text><text x="141.0" y="209" fill="#94a3b8" font-family="Verdana, Arial, sans-serif" font-size="11.5" text-anchor="middle">git push</text></g><g><rect x="276" y="130" width="190" height="100" rx="14" fill="#132038" stroke="#38bdf8" stroke-width="1.6"/><rect x="276" y="130" width="190" height="4" rx="2" fill="#38bdf8"/><circle cx="371.0" cy="160" r="17" fill="#0d1626" stroke="#38bdf8" stroke-width="1.4"/><g transform="translate(361.5,150.5) scale(0.7916666666666666)" fill="none" stroke="#38bdf8" stroke-width="1.8" stroke-linecap="round" stroke-linejoin="round"><circle cx="6" cy="5" r="2"/><circle cx="6" cy="19" r="2"/><circle cx="18" cy="12" r="2"/><path d="M6 7v10M6 12c0-3 4-3.5 10-4.5"/></g><text x="371.0" y="190" fill="#f1f5f9" font-family="Verdana, Arial, sans-serif" font-size="15.5" font-weight="bold" text-anchor="middle">GitHub Actions</text><text x="371.0" y="209" fill="#94a3b8" font-family="Verdana, Arial, sans-serif" font-size="11.5" text-anchor="middle">CI trigger</text></g><g><rect x="516" y="118" width="200" height="62" rx="14" fill="#132038" stroke="#38bdf8" stroke-width="1.6"/><rect x="516" y="118" width="200" height="4" rx="2" fill="#38bdf8"/><circle cx="616.0" cy="148" r="17" fill="#0d1626" stroke="#38bdf8" stroke-width="1.4"/><g transform="translate(606.5,138.5) scale(0.7916666666666666)" fill="none" stroke="#38bdf8" stroke-width="1.8" stroke-linecap="round" stroke-linejoin="round"><circle cx="12" cy="12" r="3.2"/><path d="M12 3v2.4M12 18.6V21M21 12h-2.4M5.4 12H3M18 6l-1.6 1.6M7.6 16.4L6 18M18 18l-1.6-1.6M7.6 7.6L6 6"/></g><text x="616.0" y="178" fill="#f1f5f9" font-family="Verdana, Arial, sans-serif" font-size="15.5" font-weight="bold" text-anchor="middle">Lint + Unit Tests</text><text x="616.0" y="197" fill="#94a3b8" font-family="Verdana, Arial, sans-serif" font-size="11.5" text-anchor="middle">Node 18 / 20 matrix</text></g><g><rect x="516" y="198" width="200" height="62" rx="14" fill="#132038" stroke="#fbbf24" stroke-width="1.6"/><rect x="516" y="198" width="200" height="4" rx="2" fill="#fbbf24"/><circle cx="616.0" cy="228" r="17" fill="#0d1626" stroke="#fbbf24" stroke-width="1.4"/><g transform="translate(606.5,218.5) scale(0.7916666666666666)" fill="none" stroke="#fbbf24" stroke-width="1.8" stroke-linecap="round" stroke-linejoin="round"><path d="M12 3l7 3v6c0 4.5-3 7.5-7 9-4-1.5-7-4.5-7-9V6z"/><path d="M9 12l2 2 4-4"/></g><text x="616.0" y="258" fill="#f1f5f9" font-family="Verdana, Arial, sans-serif" font-size="15.5" font-weight="bold" text-anchor="middle">Trivy Security Scan</text><text x="616.0" y="277" fill="#94a3b8" font-family="Verdana, Arial, sans-serif" font-size="11.5" text-anchor="middle">CRITICAL / HIGH CVEs</text></g><g><rect x="766" y="130" width="200" height="100" rx="14" fill="#132038" stroke="#34d399" stroke-width="1.6"/><rect x="766" y="130" width="200" height="4" rx="2" fill="#34d399"/><circle cx="866.0" cy="160" r="17" fill="#0d1626" stroke="#34d399" stroke-width="1.4"/><g transform="translate(856.5,150.5) scale(0.7916666666666666)" fill="none" stroke="#34d399" stroke-width="1.8" stroke-linecap="round" stroke-linejoin="round"><rect x="3" y="7" width="7" height="7" rx="1"/><rect x="10.5" y="7" width="7" height="7" rx="1"/><rect x="7" y="14.5" width="7" height="5" rx="1"/></g><text x="866.0" y="190" fill="#f1f5f9" font-family="Verdana, Arial, sans-serif" font-size="15.5" font-weight="bold" text-anchor="middle">Docker Build &amp; Push</text><text x="866.0" y="209" fill="#94a3b8" font-family="Verdana, Arial, sans-serif" font-size="11.5" text-anchor="middle">ghcr.io image</text></g><g><rect x="1006" y="130" width="138" height="100" rx="14" fill="#132038" stroke="#34d399" stroke-width="1.6"/><rect x="1006" y="130" width="138" height="4" rx="2" fill="#34d399"/><circle cx="1075.0" cy="160" r="17" fill="#0d1626" stroke="#34d399" stroke-width="1.4"/><g transform="translate(1065.5,150.5) scale(0.7916666666666666)" fill="none" stroke="#34d399" stroke-width="1.8" stroke-linecap="round" stroke-linejoin="round"><path d="M7 18a4 4 0 0 1-.6-7.95A5 5 0 0 1 16 8.2 4.5 4.5 0 0 1 17.5 17H7z"/></g><text x="1075.0" y="190" fill="#f1f5f9" font-family="Verdana, Arial, sans-serif" font-size="15.5" font-weight="bold" text-anchor="middle">Deploy</text><text x="1075.0" y="209" fill="#94a3b8" font-family="Verdana, Arial, sans-serif" font-size="11.5" text-anchor="middle">production env</text></g><path d="M226,180 L276,180" stroke="#fbbf24" stroke-width="2" fill="none"  marker-end="url(#arrowhead)"/><path d="M466,165 L516,149" stroke="#38bdf8" stroke-width="2" fill="none"  marker-end="url(#arrowhead)"/><path d="M466,195 L516,229" stroke="#38bdf8" stroke-width="2" fill="none"  marker-end="url(#arrowhead)"/><path d="M716,149 L766,165" stroke="#38bdf8" stroke-width="2" fill="none"  marker-end="url(#arrowhead)"/><path d="M716,229 L766,195" stroke="#fbbf24" stroke-width="2" fill="none"  marker-end="url(#arrowhead)"/><path d="M966,180 L1006,180" stroke="#34d399" stroke-width="2" fill="none"  marker-end="url(#arrowhead)"/><rect x="368.79999999999995" y="310" width="131.60000000000002" height="30" rx="15" fill="#38bdf8"/><text x="434.59999999999997" y="330" fill="#0b1220" font-family="Verdana, Arial, sans-serif" font-size="12" font-weight="bold" text-anchor="middle">GitHub Actions</text><rect x="514.4" y="310" width="79.80000000000001" height="30" rx="15" fill="#38bdf8"/><text x="554.3" y="330" fill="#0b1220" font-family="Verdana, Arial, sans-serif" font-size="12" font-weight="bold" text-anchor="middle">Node.js</text><rect x="608.2" y="310" width="72.4" height="30" rx="15" fill="#38bdf8"/><text x="644.4000000000001" y="330" fill="#0b1220" font-family="Verdana, Arial, sans-serif" font-size="12" font-weight="bold" text-anchor="middle">Docker</text><rect x="694.6" y="310" width="65.0" height="30" rx="15" fill="#38bdf8"/><text x="727.1" y="330" fill="#0b1220" font-family="Verdana, Arial, sans-serif" font-size="12" font-weight="bold" text-anchor="middle">Trivy</text><rect x="773.6" y="310" width="57.6" height="30" rx="15" fill="#38bdf8"/><text x="802.4" y="330" fill="#0b1220" font-family="Verdana, Arial, sans-serif" font-size="12" font-weight="bold" text-anchor="middle">GHCR</text><rect x="276" y="360" width="868" height="46" rx="10" fill="#132038" stroke="#22314d" stroke-width="1"/><text x="710" y="388" fill="#94a3b8" font-family="Verdana, Arial, sans-serif" font-size="12.5" text-anchor="middle">Branch protection on main: lint-and-test + security-scan required before merge</text>
  <line x1="56" y1="424" x2="1144" y2="424" stroke="#22314d" stroke-width="1"/>
  <text x="56" y="450" fill="#64748b" font-family="Verdana, Arial, sans-serif" font-size="12">Lint -&gt; Test -&gt; Security Scan -&gt; Build/Push Image -&gt; Deploy</text>
  <text x="1144" y="450" fill="#64748b" font-family="Verdana, Arial, sans-serif" font-size="12" text-anchor="end">github.com/JoseFilhoMax</text>
</svg>